<svg width="54" height="14" viewBox="0 0 54 14" fill="none" xmlns="http://www.w3.org/2000/svg">
<path d="M3.744 10.066H10.494L9.63 13H0.09L2.7 0.616H5.742L3.744 10.066ZM16.8143 13.072C12.9623 13.072 10.4423 11.11 11.3603 6.808C12.2423 2.524 15.5903 0.561999 19.4423 0.561999C23.2763 0.561999 25.8143 2.524 24.9323 6.808C24.0143 11.11 20.6483 13.072 16.8143 13.072ZM18.8303 3.478C16.0403 3.478 14.7983 4.972 14.4203 6.808C14.0243 8.662 14.6363 10.156 17.4263 10.156C20.1983 10.156 21.4763 8.662 21.8723 6.808C22.2323 4.972 21.6203 3.478 18.8303 3.478ZM31.875 10.12C32.865 10.12 33.693 10.03 34.431 9.868L35.133 6.574H38.175L37.059 11.884C34.557 12.82 33.225 13.072 31.245 13.072C27.411 13.072 24.909 11.11 25.827 6.808C26.709 2.524 30.039 0.561999 33.873 0.561999C35.511 0.561999 37.095 0.831999 38.139 1.21L36.681 4C35.961 3.766 34.539 3.514 33.261 3.514C30.831 3.514 29.337 4.63 28.887 6.808C28.419 9.004 29.427 10.12 31.875 10.12ZM44.9393 13.072C41.0873 13.072 38.5673 11.11 39.4853 6.808C40.3673 2.524 43.7153 0.561999 47.5673 0.561999C51.4013 0.561999 53.9393 2.524 53.0573 6.808C52.1393 11.11 48.7733 13.072 44.9393 13.072ZM46.9553 3.478C44.1653 3.478 42.9233 4.972 42.5453 6.808C42.1493 8.662 42.7613 10.156 45.5513 10.156C48.3233 10.156 49.6013 8.662 49.9973 6.808C50.3573 4.972 49.7453 3.478 46.9553 3.478Z" fill="black"/>
</svg>
