<svg width="192" height="46" viewBox="0 0 192 46" fill="none" xmlns="http://www.w3.org/2000/svg">
<path d="M13.312 34.568H37.312L34.24 45H0.32L9.6 0.967999H20.416L13.312 34.568ZM59.784 45.256C46.088 45.256 37.128 38.28 40.392 22.984C43.528 7.752 55.432 0.775997 69.128 0.775997C82.76 0.775997 91.784 7.752 88.648 22.984C85.384 38.28 73.416 45.256 59.784 45.256ZM66.952 11.144C57.032 11.144 52.616 16.456 51.272 22.984C49.864 29.576 52.04 34.888 61.96 34.888C71.816 34.888 76.36 29.576 77.768 22.984C79.048 16.456 76.872 11.144 66.952 11.144ZM113.334 34.76C116.854 34.76 119.798 34.44 122.422 33.864L124.918 22.152H135.734L131.766 41.032C122.87 44.36 118.134 45.256 111.094 45.256C97.4615 45.256 88.5655 38.28 91.8295 22.984C94.9655 7.752 106.806 0.775997 120.438 0.775997C126.262 0.775997 131.894 1.736 135.606 3.08L130.422 13C127.862 12.168 122.806 11.272 118.262 11.272C109.622 11.272 104.31 15.24 102.71 22.984C101.046 30.792 104.63 34.76 113.334 34.76ZM159.784 45.256C146.088 45.256 137.128 38.28 140.392 22.984C143.528 7.752 155.432 0.775997 169.128 0.775997C182.76 0.775997 191.784 7.752 188.648 22.984C185.384 38.28 173.416 45.256 159.784 45.256ZM166.952 11.144C157.032 11.144 152.616 16.456 151.272 22.984C149.864 29.576 152.04 34.888 161.96 34.888C171.816 34.888 176.36 29.576 177.768 22.984C179.048 16.456 176.872 11.144 166.952 11.144Z" fill="#2A2929"/>
</svg>
