<svg width="120" height="29" viewBox="0 0 120 29" fill="none" xmlns="http://www.w3.org/2000/svg">
<path d="M8.32 21.48H23.32L21.4 28H0.2L6 0.479999H12.76L8.32 21.48ZM37.365 28.16C28.805 28.16 23.205 23.8 25.245 14.24C27.205 4.72 34.645 0.359998 43.205 0.359998C51.725 0.359998 57.365 4.72 55.405 14.24C53.365 23.8 45.885 28.16 37.365 28.16ZM41.845 6.84C35.645 6.84 32.885 10.16 32.045 14.24C31.165 18.36 32.525 21.68 38.725 21.68C44.885 21.68 47.725 18.36 48.605 14.24C49.405 10.16 48.045 6.84 41.845 6.84ZM70.8334 21.6C73.0334 21.6 74.8734 21.4 76.5134 21.04L78.0734 13.72H84.8334L82.3534 25.52C76.7934 27.6 73.8334 28.16 69.4334 28.16C60.9134 28.16 55.3534 23.8 57.3934 14.24C59.3534 4.72 66.7534 0.359998 75.2734 0.359998C78.9134 0.359998 82.4334 0.959998 84.7534 1.8L81.5134 8C79.9134 7.48 76.7534 6.92 73.9134 6.92C68.5134 6.92 65.1934 9.4 64.1934 14.24C63.1534 19.12 65.3934 21.6 70.8334 21.6ZM99.865 28.16C91.305 28.16 85.705 23.8 87.745 14.24C89.705 4.72 97.145 0.359998 105.705 0.359998C114.225 0.359998 119.865 4.72 117.905 14.24C115.865 23.8 108.385 28.16 99.865 28.16ZM104.345 6.84C98.145 6.84 95.385 10.16 94.545 14.24C93.665 18.36 95.025 21.68 101.225 21.68C107.385 21.68 110.225 18.36 111.105 14.24C111.905 10.16 110.545 6.84 104.345 6.84Z" fill="white"/>
</svg>
