<svg width="166" height="22" viewBox="0 0 166 22" fill="none" xmlns="http://www.w3.org/2000/svg">
<g clip-path="url(#clip0_515_230)">
<path d="M104.234 21.9529H99.477L84.1272 5.24768L71.9465 18.5335H91.4632L94.6014 21.9529H59.3107L43.9675 5.24768L31.7803 18.5335H51.3376L54.4758 21.9529H23.8267L43.9675 0.00161743L64.0156 21.8326L84.1255 0.00486778L104.234 21.9529Z" fill="white"/>
<path d="M0 10.3361L0.0406294 10.2419C0.346162 4.61225 5.46059 0.253527 10.9748 0H39.1895L36.5583 2.87656C36.4153 2.9757 36.1147 3.39174 35.9716 3.41937H10.9781C7.72121 3.61439 4.71951 5.8035 3.83379 8.96772C2.48652 13.7734 6.20492 18.2345 11.0171 18.5335L17.209 18.5254C19.0243 16.5979 20.7844 14.6152 22.5786 12.6666H16.0665C15.3254 11.5046 14.5063 10.3865 13.7262 9.24887L30.6118 9.28788L19.1088 21.9529H10.8415L9.50728 21.7855C4.92591 20.994 0.991357 17.456 0.169018 12.8291L0 11.5794L0 10.3361Z" fill="white"/>
<path d="M111.916 21.9529C106.964 21.6782 102.381 18.1077 101.322 13.2192C99.8361 6.36905 105.276 0.39491 112.014 0.00161743H140.266L137.129 3.38361L137.048 3.41936H112.053C108.796 3.61438 105.794 5.80349 104.908 8.96771C103.561 13.7734 107.279 18.2345 112.092 18.5335L118.284 18.5254L123.653 12.6666H117.141L114.801 9.24887L131.686 9.28787L120.183 21.9529C117.464 21.8407 114.622 22.1024 111.916 21.9529Z" fill="white"/>
<path d="M165.144 21.9529H160.387L145.042 5.24768L132.856 18.5335H152.412L155.55 21.9529H124.901L145.042 0.00161743L165.144 21.9529Z" fill="white"/>
</g>
<defs>
<clipPath id="clip0_515_230">
<rect width="165.144" height="22" fill="white"/>
</clipPath>
</defs>
</svg>
