<svg width="39" height="47" viewBox="0 0 39 47" fill="none" xmlns="http://www.w3.org/2000/svg">
<path fill-rule="evenodd" clip-rule="evenodd" d="M30.5906 0.737046C31.198 0.625704 31.8248 0.760006 32.3332 1.11045C32.8417 1.4609 33.1902 1.99883 33.3023 2.60609L38.072 28.5347C38.1394 28.8403 38.1446 29.1564 38.0873 29.464C38.0299 29.7716 37.9112 30.0645 37.7382 30.3253C37.5652 30.586 37.3414 30.8093 37.0802 30.9817C36.8191 31.1541 36.5259 31.2721 36.2181 31.3287C35.9103 31.3853 35.5943 31.3794 35.2889 31.3112C34.9835 31.243 34.6949 31.114 34.4404 30.9319C34.1859 30.7498 33.9707 30.5183 33.8077 30.2512C33.6446 29.9842 33.537 29.687 33.4913 29.3774L29.7391 8.98018L4.71863 45.2809C4.3679 45.7898 3.82939 46.1385 3.22157 46.2503C2.61375 46.3621 1.98641 46.2279 1.47755 45.8772C0.968693 45.5264 0.620005 44.9879 0.508197 44.3801C0.396385 43.7723 0.53061 43.1449 0.881342 42.6361L25.9018 6.3353L5.50464 10.0874C5.19906 10.1549 4.88302 10.1601 4.57539 10.1027C4.26776 10.0454 3.97483 9.92665 3.71408 9.75363C3.45333 9.58061 3.2301 9.35684 3.05771 9.09568C2.88532 8.83452 2.76729 8.5413 2.71068 8.23354C2.65406 7.92577 2.66002 7.60975 2.72819 7.30433C2.79636 6.99892 2.92534 6.71036 3.10745 6.45588C3.28956 6.20139 3.52106 5.98619 3.78814 5.82312C4.05523 5.66005 4.35242 5.55244 4.66199 5.50672L30.5906 0.737046Z" fill="white"/>
</svg>
