<svg width="23" height="17" viewBox="0 0 23 17" fill="none" xmlns="http://www.w3.org/2000/svg">
<path fill-rule="evenodd" clip-rule="evenodd" d="M22.0728 7.84286C22.2469 8.01718 22.3447 8.25348 22.3447 8.49984C22.3447 8.74621 22.2469 8.98251 22.0728 9.15682L14.6353 16.5943C14.5502 16.6857 14.4476 16.7589 14.3335 16.8097C14.2195 16.8606 14.0964 16.8879 13.9716 16.8901C13.8467 16.8923 13.7227 16.8693 13.607 16.8226C13.4912 16.7758 13.3861 16.7062 13.2978 16.6179C13.2095 16.5296 13.1399 16.4245 13.0931 16.3087C13.0464 16.193 13.0234 16.069 13.0256 15.9441C13.0278 15.8193 13.0551 15.6962 13.106 15.5822C13.1568 15.4681 13.23 15.3655 13.3214 15.2804L19.1722 9.42953L1.58252 9.42953C1.33596 9.42953 1.09949 9.33158 0.925136 9.15723C0.750786 8.98288 0.652837 8.74641 0.652837 8.49984C0.652837 8.25327 0.750786 8.01681 0.925136 7.84246C1.09949 7.66811 1.33596 7.57016 1.58252 7.57016L19.1722 7.57016L13.3214 1.71932C13.23 1.63421 13.1568 1.53157 13.106 1.41753C13.0551 1.30349 13.0278 1.18038 13.0256 1.05555C13.0234 0.930725 13.0464 0.80673 13.0931 0.690968C13.1399 0.575205 13.2095 0.470047 13.2978 0.381765C13.3861 0.293483 13.4912 0.223888 13.607 0.177129C13.7227 0.130371 13.8467 0.107408 13.9716 0.109611C14.0964 0.111813 14.2195 0.139136 14.3335 0.189949C14.4476 0.240762 14.5502 0.314024 14.6353 0.405365L22.0728 7.84286Z" fill="black"/>
</svg>
