<svg width="31" height="24" viewBox="0 0 31 24" fill="none" xmlns="http://www.w3.org/2000/svg">
<path fill-rule="evenodd" clip-rule="evenodd" d="M1.33927 10.5879C1.09726 10.8257 0.960659 11.1487 0.959469 11.486C0.958279 11.8233 1.0926 12.1472 1.33293 12.3867L11.5997 22.6037C11.7171 22.7292 11.859 22.83 12.0167 22.9001C12.1744 22.9702 12.3448 23.0082 12.5177 23.0118C12.6906 23.0154 12.8625 22.9845 13.0231 22.9211C13.1837 22.8576 13.3297 22.7629 13.4524 22.6424C13.5751 22.522 13.672 22.3784 13.7374 22.2201C13.8027 22.0619 13.8351 21.8922 13.8327 21.7213C13.8302 21.5505 13.793 21.3818 13.7231 21.2254C13.6533 21.0691 13.5523 20.9282 13.4262 20.8113L5.34966 12.7738L29.7155 12.8578C30.0571 12.859 30.3851 12.726 30.6275 12.4882C30.8698 12.2503 31.0067 11.9271 31.0078 11.5896C31.009 11.252 30.8745 10.9278 30.6338 10.6883C30.3932 10.4488 30.0661 10.3136 29.7245 10.3124L5.35864 10.2285L13.4917 2.24689C13.6186 2.13081 13.7206 1.99065 13.7915 1.83478C13.8625 1.67891 13.9009 1.51051 13.9046 1.33963C13.9082 1.16876 13.877 0.998908 13.8128 0.840212C13.7486 0.681516 13.6527 0.537227 13.5308 0.415952C13.409 0.294678 13.2636 0.198903 13.1035 0.13434C12.9434 0.0697778 12.7717 0.0377513 12.5988 0.0401705C12.4259 0.0425896 12.2552 0.0794048 12.097 0.148421C11.9388 0.217437 11.7962 0.317239 11.6779 0.441873L1.33927 10.5879Z" fill="#FD532F"/>
</svg>
