<svg width="31" height="24" viewBox="0 0 31 24" fill="none" xmlns="http://www.w3.org/2000/svg">
<path fill-rule="evenodd" clip-rule="evenodd" d="M29.6607 10.5879C29.9027 10.8257 30.0393 11.1487 30.0405 11.486C30.0417 11.8233 29.9074 12.1472 29.6671 12.3867L19.4003 22.6037C19.2829 22.7292 19.141 22.83 18.9833 22.9001C18.8256 22.9702 18.6552 23.0082 18.4823 23.0118C18.3094 23.0154 18.1375 22.9845 17.9769 22.9211C17.8163 22.8576 17.6703 22.7629 17.5476 22.6424C17.4249 22.522 17.328 22.3784 17.2626 22.2201C17.1973 22.0619 17.1649 21.8922 17.1673 21.7213C17.1698 21.5505 17.207 21.3818 17.2769 21.2254C17.3467 21.0691 17.4477 20.9282 17.5738 20.8113L25.6503 12.7738L1.28448 12.8578C0.942925 12.859 0.614884 12.726 0.372525 12.4882C0.130167 12.2503 -0.00665598 11.9271 -0.00784707 11.5896C-0.00903816 11.252 0.1255 10.9278 0.366174 10.6883C0.606849 10.4488 0.933943 10.3136 1.2755 10.3124L25.6414 10.2285L17.5083 2.24689C17.3814 2.13081 17.2794 1.99065 17.2085 1.83478C17.1375 1.67891 17.0991 1.51051 17.0954 1.33963C17.0918 1.16876 17.123 0.998908 17.1872 0.840212C17.2514 0.681516 17.3473 0.537227 17.4692 0.415952C17.591 0.294678 17.7364 0.198903 17.8965 0.13434C18.0566 0.0697778 18.2283 0.0377513 18.4012 0.0401705C18.5741 0.0425896 18.7448 0.0794048 18.903 0.148421C19.0612 0.217437 19.2038 0.317239 19.3221 0.441873L29.6607 10.5879Z" fill="#FD532F"/>
</svg>
