<svg width="100" height="93" viewBox="0 0 100 93" fill="none" xmlns="http://www.w3.org/2000/svg">
<path d="M20.2381 0C18.028 0 15.9083 0.877974 14.3455 2.44078C12.7827 4.00358 11.9048 6.1232 11.9048 8.33333V20.2381C11.9048 24.8381 15.6381 28.5714 20.2381 28.5714H32.1429C34.353 28.5714 36.4726 27.6935 38.0354 26.1307C39.5982 24.5679 40.4762 22.4482 40.4762 20.2381V8.33333C40.4762 6.1232 39.5982 4.00358 38.0354 2.44078C36.4726 0.877974 34.353 0 32.1429 0H20.2381ZM54.7619 8.33333V20.2381C54.7619 24.8381 58.4952 28.5714 63.0952 28.5714H75C77.2101 28.5714 79.3298 27.6935 80.8926 26.1307C82.4554 24.5679 83.3333 22.4482 83.3333 20.2381V8.33333C83.3333 6.1232 82.4554 4.00358 80.8926 2.44078C79.3298 0.877974 77.2101 0 75 0H63.0952C60.8851 0 58.7655 0.877974 57.2027 2.44078C55.6399 4.00358 54.7619 6.1232 54.7619 8.33333ZM63.0952 7.14286H75C75.3157 7.14286 75.6185 7.26828 75.8418 7.49154C76.0651 7.7148 76.1905 8.0176 76.1905 8.33333V20.2381C76.1905 20.5538 76.0651 20.8566 75.8418 21.0799C75.6185 21.3031 75.3157 21.4286 75 21.4286H63.0952C62.7795 21.4286 62.4767 21.3031 62.2534 21.0799C62.0302 20.8566 61.9048 20.5538 61.9048 20.2381V8.33333C61.9048 8.0176 62.0302 7.7148 62.2534 7.49154C62.4767 7.26828 62.7795 7.14286 63.0952 7.14286ZM21.4286 38.0952C15.7454 38.0952 10.2949 40.3529 6.27628 44.3715C2.25765 48.3902 0 53.8406 0 59.5238C0 65.207 2.25765 70.6575 6.27628 74.6761C10.2949 78.6947 15.7454 80.9524 21.4286 80.9524H46.3429C43.7661 76.0077 42.5795 70.4565 42.9095 64.8905C41.9039 64.0082 41.1662 62.8613 40.7805 61.5803C40.3948 60.2993 40.3766 58.9358 40.7279 57.6449C41.0793 56.3541 41.7861 55.1879 42.7679 54.2791C43.7496 53.3704 44.9669 52.7556 46.281 52.5048C49.63 46.0189 55.1541 40.9179 61.8857 38.0952H21.4286ZM23.8095 66.6667C21.9151 66.6667 20.0983 65.9141 18.7588 64.5746C17.4192 63.235 16.6667 61.4182 16.6667 59.5238C16.6667 57.6294 17.4192 55.8126 18.7588 54.473C20.0983 53.1335 21.9151 52.381 23.8095 52.381C25.7039 52.381 27.5207 53.1335 28.8603 54.473C30.1998 55.8126 30.9524 57.6294 30.9524 59.5238C30.9524 61.4182 30.1998 63.235 28.8603 64.5746C27.5207 65.9141 25.7039 66.6667 23.8095 66.6667ZM100 66.6667C100 73.6128 97.2407 80.2745 92.329 85.1861C87.4173 90.0978 80.7557 92.8571 73.8095 92.8571C66.8634 92.8571 60.2017 90.0978 55.2901 85.1861C50.3784 80.2745 47.619 73.6128 47.619 66.6667C47.619 59.7205 50.3784 53.0589 55.2901 48.1472C60.2017 43.2355 66.8634 40.4762 73.8095 40.4762C80.7557 40.4762 87.4173 43.2355 92.329 48.1472C97.2407 53.0589 100 59.7205 100 66.6667ZM89.781 55.4571C89.5598 55.2354 89.297 55.0595 89.0078 54.9395C88.7185 54.8194 88.4084 54.7576 88.0952 54.7576C87.7821 54.7576 87.472 54.8194 87.1827 54.9395C86.8934 55.0595 86.6307 55.2354 86.4095 55.4571L69.0476 72.8238L61.2095 64.9809C60.7624 64.5339 60.1561 64.2827 59.5238 64.2827C58.8915 64.2827 58.2852 64.5339 57.8381 64.9809C57.391 65.428 57.1399 66.0344 57.1399 66.6667C57.1399 67.2989 57.391 67.9053 57.8381 68.3524L67.3619 77.8762C67.5831 78.0979 67.8458 78.2738 68.1351 78.3939C68.4243 78.5139 68.7344 78.5757 69.0476 78.5757C69.3608 78.5757 69.6709 78.5139 69.9602 78.3939C70.2494 78.2738 70.5122 78.0979 70.7333 77.8762L89.781 58.8286C90.0027 58.6074 90.1786 58.3447 90.2986 58.0554C90.4187 57.7661 90.4804 57.456 90.4804 57.1429C90.4804 56.8297 90.4187 56.5196 90.2986 56.2303C90.1786 55.9411 90.0027 55.6783 89.781 55.4571Z" fill="#FF3D00"/>
</svg>
