<svg width="101" height="77" viewBox="0 0 101 77" fill="none" xmlns="http://www.w3.org/2000/svg">
<path d="M89.0625 1.253C87.988 0.55789 86.7593 0.137362 85.4842 0.0283821C84.2091 -0.0805974 82.9268 0.12531 81.75 0.628004L43.1875 15.8155C42.2755 16.1902 41.2985 16.3813 40.3125 16.378H15.625C13.553 16.378 11.5659 17.2011 10.1007 18.6662C8.6356 20.1314 7.8125 22.1185 7.8125 24.1905V24.8155H0V43.5655H7.8125V44.378C7.86146 46.4173 8.70612 48.3566 10.166 49.7815C11.6258 51.2063 13.5851 52.0036 15.625 52.003L25 71.878C25.6348 73.2164 26.6342 74.3486 27.8835 75.1446C29.1328 75.9406 30.5812 76.3681 32.0625 76.378H36C38.0612 76.3615 40.0323 75.5311 41.4839 74.0678C42.9356 72.6045 43.7501 70.6267 43.75 68.5655V52.753L81.75 67.9405C82.6859 68.3082 83.682 68.4989 84.6875 68.503C86.2476 68.4743 87.7665 67.9969 89.0625 67.128C90.0905 66.4339 90.9384 65.505 91.5362 64.4182C92.1339 63.3314 92.4643 62.1179 92.5 60.878V7.69051C92.4943 6.41873 92.1782 5.16758 91.5791 4.04571C90.9801 2.92385 90.1162 1.96519 89.0625 1.253ZM35.9375 24.1905V44.378H15.625V24.1905H35.9375ZM35.9375 68.5655H32L24.3125 52.003H35.9375V68.5655ZM46.0625 45.3155C45.3203 44.9366 44.5466 44.6229 43.75 44.378V23.753C44.5387 23.589 45.3123 23.3591 46.0625 23.0655L84.6875 7.69051V60.6905L46.0625 45.3155ZM92.6875 26.378V42.003C94.7595 42.003 96.7466 41.1799 98.2118 39.7148C99.6769 38.2496 100.5 36.2625 100.5 34.1905C100.5 32.1185 99.6769 30.1314 98.2118 28.6662C96.7466 27.2011 94.7595 26.378 92.6875 26.378Z" fill="#FF3D00"/>
</svg>
