<svg width="100" height="103" viewBox="0 0 100 103" fill="none" xmlns="http://www.w3.org/2000/svg">
<path d="M15.6548 45.5293L2.60917 38.0933C1.82643 37.6585 1.19502 37.027 0.71494 36.1991C0.23486 35.3711 -0.0034413 34.4823 3.75414e-05 33.5325V18.6605C3.75414e-05 17.7038 0.240078 16.8115 0.720158 15.9835C1.20024 15.1556 1.82991 14.5242 2.60917 14.0893L15.6548 6.65328C16.4376 6.21843 17.3073 6.001 18.264 6.001C19.2206 6.001 20.0903 6.21843 20.8731 6.65328L33.9187 14.0893C34.7015 14.5242 35.3329 15.1556 35.813 15.9835C36.293 16.8115 36.5313 17.7021 36.5279 18.6553V33.5273C36.5279 34.484 36.2896 35.3763 35.813 36.2043C35.3364 37.0323 34.705 37.6619 33.9187 38.0933L20.8731 45.5293C20.0903 45.9642 19.2206 46.1816 18.264 46.1816C17.3073 46.1816 16.4376 45.9642 15.6548 45.5293ZM75.6648 57.4009V38.876L88.7105 46.573C90.3629 47.5297 91.6466 48.7907 92.5616 50.3562C93.4765 51.9217 93.9322 53.6611 93.9287 55.5745V80.1003C93.9287 82.0137 93.473 83.7531 92.5616 85.3186C91.6501 86.8841 90.3664 88.1451 88.7105 89.1018L67.8374 101.234C66.185 102.191 64.4456 102.669 62.6192 102.669C60.7928 102.669 59.0534 102.191 57.4009 101.234L36.5279 89.1018C34.8754 88.1451 33.5935 86.8841 32.682 85.3186C31.7706 83.7531 31.3131 82.0137 31.3096 80.1003V55.5745C31.3096 53.6611 31.7671 51.9217 32.682 50.3562C33.5969 48.7907 34.8789 47.5297 36.5279 46.573L49.5735 38.876V57.4009C49.5735 61.0537 50.8346 64.1411 53.3568 66.6633C55.8789 69.1855 58.9664 70.4465 62.6192 70.4465C66.272 70.4465 69.3594 69.1855 71.8816 66.6633C74.4038 64.1411 75.6648 61.0537 75.6648 57.4009ZM67.8374 31.3096V57.4009C67.8374 58.8794 67.3365 60.1196 66.3346 61.1215C65.3327 62.1234 64.0942 62.6226 62.6192 62.6191C61.1442 62.6157 59.9057 62.1147 58.9038 61.1163C57.9019 60.1179 57.4009 58.8794 57.4009 57.4009V5.21826C57.4009 3.73975 57.9019 2.50129 58.9038 1.50286C59.9057 0.504432 61.1442 0.00347884 62.6192 0H94.581C96.6683 0 98.2338 0.913196 99.2775 2.73959C100.321 4.56598 100.234 6.34888 99.0166 8.08831L95.8856 12.7847C95.2768 13.6545 94.9724 14.6111 94.9724 15.6548C94.9724 16.6984 95.2768 17.6551 95.8856 18.5248L99.0166 23.2213C100.234 24.9607 100.321 26.7436 99.2775 28.57C98.2338 30.3964 96.6683 31.3096 94.581 31.3096H67.8374Z" fill="white"/>
</svg>
