<svg width="100" height="100" viewBox="0 0 100 100" fill="none" xmlns="http://www.w3.org/2000/svg">
<g clip-path="url(#clip0_41_185)">
<path d="M27.7778 27.7779C28.5145 27.7779 29.221 27.4852 29.742 26.9643C30.2629 26.4434 30.5556 25.7368 30.5556 25.0001V8.33344C30.5556 7.59673 30.2629 6.89019 29.742 6.36926C29.221 5.84832 28.5145 5.55566 27.7778 5.55566C27.0411 5.55566 26.3345 5.84832 25.8136 6.36926C25.2927 6.89019 25 7.59673 25 8.33344V25.0001C25 25.7368 25.2927 26.4434 25.8136 26.9643C26.3345 27.4852 27.0411 27.7779 27.7778 27.7779Z" fill="#FF3D00"/>
<path d="M72.2221 27.7779C72.9588 27.7779 73.6654 27.4852 74.1863 26.9643C74.7072 26.4434 74.9999 25.7368 74.9999 25.0001V8.33344C74.9999 7.59673 74.7072 6.89019 74.1863 6.36926C73.6654 5.84832 72.9588 5.55566 72.2221 5.55566C71.4854 5.55566 70.7789 5.84832 70.2579 6.36926C69.737 6.89019 69.4443 7.59673 69.4443 8.33344V25.0001C69.4443 25.7368 69.737 26.4434 70.2579 26.9643C70.7789 27.4852 71.4854 27.7779 72.2221 27.7779Z" fill="#FF3D00"/>
<path d="M89.5832 16.6666H78.4721V24.9999C78.4721 26.6207 77.8282 28.1751 76.6822 29.3211C75.5361 30.4672 73.9817 31.111 72.361 31.111C70.7402 31.111 69.1858 30.4672 68.0397 29.3211C66.8937 28.1751 66.2498 26.6207 66.2498 24.9999V16.6666H33.8887V24.9999C33.8887 26.6207 33.2449 28.1751 32.0988 29.3211C30.9528 30.4672 29.3984 31.111 27.7776 31.111C26.1569 31.111 24.6025 30.4672 23.4564 29.3211C22.3104 28.1751 21.6665 26.6207 21.6665 24.9999V16.6666H10.5554C9.89435 16.6591 9.23851 16.7842 8.62666 17.0345C8.01481 17.2849 7.45938 17.6554 6.99322 18.1242C6.52705 18.5929 6.15962 19.1504 5.91266 19.7636C5.6657 20.3768 5.54422 21.0334 5.5554 21.6944V83.861C5.54437 84.5104 5.66136 85.1555 5.8997 85.7596C6.13803 86.3637 6.49305 86.915 6.94446 87.3819C7.39588 87.8488 7.93484 88.2222 8.53059 88.4807C9.12633 88.7393 9.76717 88.878 10.4165 88.8888H89.5832C90.2325 88.878 90.8734 88.7393 91.4691 88.4807C92.0648 88.2222 92.6038 87.8488 93.0552 87.3819C93.5066 86.915 93.8617 86.3637 94.1 85.7596C94.3383 85.1555 94.4553 84.5104 94.4443 83.861V21.6944C94.4553 21.045 94.3383 20.3999 94.1 19.7958C93.8617 19.1916 93.5066 18.6404 93.0552 18.1735C92.6038 17.7066 92.0648 17.3332 91.4691 17.0747C90.8734 16.8161 90.2325 16.6774 89.5832 16.6666ZM72.0554 46.0555L45.1943 72.9166L30.5554 58.1666C29.9069 57.4533 29.5555 56.519 29.5734 55.5551C29.5913 54.5912 29.977 53.6706 30.6516 52.9819C31.3261 52.2931 32.2385 51.8883 33.2018 51.8503C34.1651 51.8124 35.1065 52.1441 35.8332 52.7777L45.2221 62.1666L66.6665 40.7221C67.0185 40.3701 67.4364 40.0909 67.8964 39.9004C68.3563 39.7099 68.8492 39.6118 69.3471 39.6118C69.8449 39.6118 70.3378 39.7099 70.7978 39.9004C71.2577 40.0909 71.6756 40.3701 72.0276 40.7221C72.3796 41.0742 72.6589 41.4921 72.8494 41.952C73.0399 42.4119 73.1379 42.9049 73.1379 43.4027C73.1379 43.9005 73.0399 44.3935 72.8494 44.8534C72.6589 45.3133 72.3796 45.7312 72.0276 46.0832L72.0554 46.0555Z" fill="#FF3D00"/>
</g>
<defs>
<clipPath id="clip0_41_185">
<rect width="100" height="100" fill="white"/>
</clipPath>
</defs>
</svg>
