<svg width="139" height="75" viewBox="0 0 139 75" fill="none" xmlns="http://www.w3.org/2000/svg">
<path d="M132.627 17.6982C132.028 17.3109 131.343 17.0765 130.633 17.0158C129.923 16.9551 129.208 17.0698 128.552 17.3499L107.065 25.8126C106.556 26.0214 106.012 26.1279 105.463 26.1261H91.7065C90.5519 26.1261 89.4447 26.5847 88.6283 27.4011C87.8119 28.2175 87.3532 29.3247 87.3532 30.4793V30.8275H83V41.2753H87.3532V41.728C87.3805 42.8644 87.8512 43.945 88.6646 44.7389C89.4781 45.5329 90.5698 45.9771 91.7065 45.9768L96.9303 57.0514C97.2841 57.7972 97.841 58.4281 98.5371 58.8716C99.2332 59.3152 100.04 59.5534 100.866 59.5589H103.06C104.208 59.5497 105.307 59.087 106.115 58.2716C106.924 57.4562 107.378 56.3542 107.378 55.2057V46.3947L128.552 54.8574C129.074 55.0623 129.629 55.1685 130.189 55.1708C131.058 55.1548 131.905 54.8888 132.627 54.4047C133.2 54.0179 133.672 53.5003 134.005 52.8947C134.338 52.2891 134.522 51.6129 134.542 50.9221V21.2853C134.539 20.5766 134.363 19.8794 134.029 19.2543C133.695 18.6292 133.214 18.095 132.627 17.6982ZM103.025 30.4793V41.728H91.7065V30.4793H103.025ZM103.025 55.2057H100.831L96.5473 45.9768H103.025V55.2057ZM108.667 42.2504C108.253 42.0393 107.822 41.8645 107.378 41.728V30.2355C107.818 30.1441 108.249 30.016 108.667 29.8524L130.189 21.2853V50.8176L108.667 42.2504ZM134.647 31.6982V40.4047C135.801 40.4047 136.909 39.946 137.725 39.1296C138.541 38.3132 139 37.206 139 36.0514C139 34.8969 138.541 33.7896 137.725 32.9732C136.909 32.1568 135.801 31.6982 134.647 31.6982Z" fill="#FF3D00"/>
<path d="M43.75 75C43.75 75 37.5 75 37.5 68.75C37.5 62.5 43.75 43.75 68.75 43.75C93.75 43.75 100 62.5 100 68.75C100 75 93.75 75 93.75 75H43.75ZM68.75 37.5C73.7228 37.5 78.492 35.5246 82.0083 32.0083C85.5246 28.4919 87.5 23.7228 87.5 18.75C87.5 13.7772 85.5246 9.00806 82.0083 5.49175C78.492 1.97544 73.7228 0 68.75 0C63.7772 0 59.0081 1.97544 55.4917 5.49175C51.9754 9.00806 50 13.7772 50 18.75C50 23.7228 51.9754 28.4919 55.4917 32.0083C59.0081 35.5246 63.7772 37.5 68.75 37.5ZM32.6 75C31.6739 73.0487 31.2119 70.9096 31.25 68.75C31.25 60.2812 35.5 51.5625 43.35 45.5C39.4324 44.2902 35.3498 43.6998 31.25 43.75C6.25 43.75 0 62.5 0 68.75C0 75 6.25 75 6.25 75H32.6ZM28.125 37.5C32.269 37.5 36.2433 35.8538 39.1735 32.9235C42.1038 29.9933 43.75 26.019 43.75 21.875C43.75 17.731 42.1038 13.7567 39.1735 10.8265C36.2433 7.8962 32.269 6.25 28.125 6.25C23.981 6.25 20.0067 7.8962 17.0765 10.8265C14.1462 13.7567 12.5 17.731 12.5 21.875C12.5 26.019 14.1462 29.9933 17.0765 32.9235C20.0067 35.8538 23.981 37.5 28.125 37.5Z" fill="#FF3D00"/>
</svg>
