<svg width="100" height="100" viewBox="0 0 100 100" fill="none" xmlns="http://www.w3.org/2000/svg">
<path d="M58.2794 0.72501C55.5443 0.253956 52.7747 0.011448 49.9993 0C40.8677 0.000256862 31.9105 2.50122 24.0996 7.23154C16.2887 11.9619 9.92228 18.7409 5.69119 26.8331C1.4601 34.9254 -0.474121 44.0218 0.0983772 53.1354C0.670875 62.2491 3.72823 71.0319 8.93873 78.5311C12.3738 73.501 20.3139 70.001 29.499 70.001C35.8141 70.001 41.5342 71.656 45.5942 74.346L58.2794 0.72501ZM84.8448 14.1952C93.4999 33.2855 85.9048 43.5056 85.9048 43.5056C80.0597 25.8804 63.0945 23.2853 63.0945 23.2853C63.0945 23.2853 51.8743 83.4411 51.8743 84.2262C51.8743 90.7213 44.9692 96.2213 35.5641 97.8764C43.0328 100.123 50.9233 100.592 58.6055 99.2465C66.2878 97.9009 73.5491 94.7776 79.8094 90.1262C86.0698 85.4748 91.1559 79.424 94.6616 72.457C98.1672 65.4901 99.9954 57.7999 100 50.0007C100.004 43.3212 98.6646 36.709 96.061 30.5578C93.4574 24.4066 89.643 18.842 84.8448 14.1952Z" fill="#FF3D00"/>
</svg>
