<svg width="43" height="44" viewBox="0 0 43 44" fill="none" xmlns="http://www.w3.org/2000/svg">
<mask id="mask0_434_2766" style="mask-type:luminance" maskUnits="userSpaceOnUse" x="0" y="0" width="43" height="44">
<path d="M42.8181 0.879883H0.578125V43.1199H42.8181V0.879883Z" fill="white"/>
</mask>
<g mask="url(#mask0_434_2766)">
<path d="M41.4988 22.1319C41.4988 10.3944 32.0476 0.879883 20.3788 0.879883C8.70999 0.882523 -0.741211 10.3944 -0.741211 22.1345C-0.741211 32.7394 6.99399 41.5306 17.0788 43.1252V28.2752H11.7195V22.1345H17.0788V17.4485C17.0788 12.1236 20.2468 9.18268 25.0516 9.18268C27.3748 9.18268 29.7773 9.59716 29.7773 9.59716V14.8244H27.1373C24.4973 14.8244 23.6788 16.4638 23.6788 18.1455V22.1319H29.5395L28.6156 28.2725H23.6788V43.1225C33.79 41.528 41.4988 32.7368 41.4988 22.1319Z" fill="white"/>
</g>
</svg>
