<svg width="43" height="44" viewBox="0 0 43 44" fill="none" xmlns="http://www.w3.org/2000/svg">
<path d="M21.4579 0.879883C15.7291 0.879883 15.0162 0.906284 12.7458 1.0066C10.5018 1.1122 8.97072 1.46596 7.62432 1.98868C6.22512 2.5188 4.9314 3.3504 3.8754 4.4254C2.8194 5.48061 1.97481 6.75705 1.44681 8.16628C0.918807 9.5074 0.57562 11.0439 0.47002 13.2879C0.36442 15.5451 0.337891 16.2632 0.337891 22.0025C0.337891 27.7366 0.36442 28.4547 0.47002 30.7066C0.57562 32.9559 0.918807 34.4897 1.44681 35.8335C1.97481 37.2221 2.7138 38.3996 3.8754 39.5744C5.0634 40.7492 6.22512 41.4725 7.62432 42.0111C8.97072 42.5338 10.5018 42.8902 12.7458 42.9932C15.0162 43.0935 15.7291 43.1199 21.4579 43.1199C27.1867 43.1199 27.8996 43.0935 30.17 42.9932C32.414 42.8876 33.9451 42.5338 35.2915 42.0111C36.6907 41.4807 37.9844 40.6491 39.0404 39.5744C40.202 38.3996 40.941 37.2221 41.469 35.8335C41.997 34.4897 42.3402 32.9559 42.4458 30.7066C42.5514 28.4547 42.5779 27.7366 42.5779 21.9999C42.5779 16.2632 42.5514 15.5451 42.4458 13.2905C42.3402 11.0439 41.997 9.5074 41.469 8.16628C40.941 6.75705 40.0964 5.48061 39.0404 4.4254C37.9844 3.35013 36.6907 2.51827 35.2915 1.98868C33.9451 1.46596 32.414 1.10956 30.17 1.0066C27.8996 0.906284 27.1867 0.879883 21.4579 0.879883ZM19.5572 4.68676H21.4579C27.1075 4.68676 27.7674 4.70525 29.985 4.80821C32.0442 4.90061 33.1794 5.24644 33.9186 5.5342C34.8954 5.917 35.6083 6.37636 36.3475 7.11556C37.0867 7.85476 37.5355 8.557 37.9315 9.54436C38.2219 10.2862 38.5651 11.4056 38.6443 13.4648C38.7499 15.6903 38.7764 16.3582 38.7764 21.9946C38.7764 27.631 38.7499 28.3016 38.6443 30.5271C38.5651 32.5863 38.2219 33.703 37.9315 34.4475C37.5883 35.3646 37.0339 36.1936 36.3475 36.8736C35.6083 37.6128 34.8954 38.0696 33.9186 38.4524C33.1794 38.7428 32.0442 39.086 29.985 39.181C27.7674 39.2813 27.1075 39.3051 21.4579 39.3051C15.8347 39.3051 15.1483 39.2813 12.9307 39.181C10.8715 39.086 9.76277 38.7428 8.99717 38.4524C8.09957 38.1142 7.25465 37.5748 6.56825 36.8736C5.88185 36.1925 5.32752 35.3628 4.98432 34.4448C4.69392 33.703 4.35067 32.5836 4.27147 30.5244C4.16586 28.2989 4.13934 27.631 4.13934 21.9893C4.13934 16.3503 4.16586 15.685 4.27147 13.4595C4.35067 11.4003 4.69392 10.2809 4.98432 9.53644C5.38032 8.55172 5.82905 7.84684 6.56825 7.10764C7.30745 6.36844 8.02037 5.91172 8.99717 5.52892C9.76277 5.23852 10.8715 4.89532 12.9307 4.80028C14.8843 4.71052 15.6236 4.68412 19.5572 4.68148V4.68676ZM32.7307 8.19268C32.3875 8.19268 32.0708 8.25815 31.754 8.38567C31.4636 8.51291 31.173 8.69957 30.9354 8.93505C30.6978 9.17028 30.5131 9.44985 30.3811 9.75715C30.2755 10.0647 30.1964 10.3942 30.1964 10.7271C30.1964 11.06 30.2755 11.3895 30.3811 11.697C30.5131 12.0043 30.6978 12.2839 30.9354 12.5191C31.173 12.7546 31.4636 12.9412 31.754 13.0685C32.0708 13.196 32.3875 13.2615 32.7307 13.2615C33.4171 13.2615 34.0506 12.9946 34.5258 12.5191C35.001 12.0439 35.265 11.3992 35.265 10.7271C35.265 10.0549 35.001 9.41025 34.5258 8.93505C34.0506 8.45959 33.4171 8.19268 32.7307 8.19268ZM21.4579 11.1548C20.0323 11.1323 18.5804 11.3963 17.2604 11.9312C15.914 12.4663 14.6996 13.2617 13.67 14.271C12.6668 15.2806 11.8484 16.4839 11.294 17.811C10.7396 19.1381 10.449 20.5624 10.449 22.0012C10.449 23.44 10.7396 24.8643 11.294 26.1914C11.8484 27.5185 12.6668 28.7219 13.67 29.7314C14.6996 30.7407 15.914 31.5361 17.2604 32.0712C18.5804 32.6061 20.0323 32.8701 21.4579 32.8476C24.3091 32.8033 27.0283 31.6409 29.0083 29.6118C31.0147 27.5824 32.15 24.849 32.15 22.0012C32.15 19.1534 31.0147 16.42 29.0083 14.3906C27.0283 12.3615 24.3091 11.1991 21.4579 11.1548ZM21.4579 14.959C23.3323 14.959 25.1275 15.7008 26.4475 17.0211C27.7675 18.3416 28.5068 20.1326 28.5068 21.9999C28.5068 23.8672 27.7675 25.6581 26.4475 26.9787C25.1275 28.2989 23.3323 29.0408 21.4579 29.0408C19.5835 29.0408 17.8147 28.2989 16.4947 26.9787C15.1483 25.6581 14.409 23.8672 14.409 21.9999C14.409 20.1326 15.1483 18.3416 16.4947 17.0211C17.8147 15.7008 19.5835 14.959 21.4579 14.959Z" fill="white"/>
</svg>
