<svg width="63" height="44" viewBox="0 0 63 44" fill="none" xmlns="http://www.w3.org/2000/svg">
<path d="M61.3279 6.88451C60.6082 4.17461 58.4877 2.04039 55.7953 1.3161C50.9152 0 31.3465 0 31.3465 0C31.3465 0 11.778 0 6.89778 1.3161C4.20542 2.0405 2.08494 4.17461 1.36524 6.88451C0.0576172 11.7964 0.0576172 22.0445 0.0576172 22.0445C0.0576172 22.0445 0.0576172 32.2926 1.36524 37.2044C2.08494 39.9143 4.20542 41.9596 6.89778 42.6839C11.778 44 31.3465 44 31.3465 44C31.3465 44 50.9151 44 55.7953 42.6839C58.4877 41.9596 60.6082 39.9143 61.3279 37.2044C62.6355 32.2926 62.6355 22.0445 62.6355 22.0445C62.6355 22.0445 62.6355 11.7964 61.3279 6.88451ZM24.9465 31.349V12.7399L41.302 22.0447L24.9465 31.349Z" fill="white"/>
</svg>
