<svg width="50" height="51" viewBox="0 0 50 51" fill="none" xmlns="http://www.w3.org/2000/svg">
<rect y="0.748291" width="49.8729" height="49.8729" rx="16.088" fill="#FD532F"/>
<path fill-rule="evenodd" clip-rule="evenodd" d="M35.2586 12.2311C35.6613 12.1961 36.0615 12.3223 36.3712 12.5821C36.6809 12.8419 36.8748 13.214 36.9103 13.6167L38.417 30.8083C38.4421 31.0116 38.4259 31.2179 38.3695 31.4148C38.3132 31.6117 38.2177 31.7953 38.0888 31.9545C37.96 32.1138 37.8004 32.2454 37.6195 32.3416C37.4387 32.4379 37.2403 32.4967 37.0363 32.5145C36.8322 32.5324 36.6266 32.509 36.4318 32.4457C36.237 32.3824 36.0569 32.2806 35.9023 32.1462C35.7477 32.0118 35.6218 31.8476 35.532 31.6635C35.4422 31.4794 35.3905 31.2791 35.3798 31.0745L34.1946 17.5504L15.647 39.6612C15.3871 39.9711 15.0146 40.1651 14.6116 40.2004C14.2086 40.2357 13.808 40.1095 13.4981 39.8495C13.1881 39.5895 12.9942 39.217 12.9589 38.814C12.9235 38.411 13.0498 38.0105 13.3098 37.7005L31.8573 15.5898L18.3332 16.775C18.1299 16.8001 17.9236 16.7839 17.7267 16.7276C17.5297 16.6712 17.3462 16.5757 17.1869 16.4469C17.0277 16.318 16.896 16.1584 16.7998 15.9776C16.7036 15.7967 16.6448 15.5983 16.6269 15.3943C16.609 15.1902 16.6324 14.9846 16.6957 14.7898C16.759 14.595 16.8609 14.4149 16.9953 14.2603C17.1297 14.1057 17.2938 13.9798 17.478 13.89C17.6621 13.8003 17.8624 13.7485 18.067 13.7378L35.2586 12.2311Z" fill="white"/>
</svg>
