<svg width="50" height="51" viewBox="0 0 50 51" fill="none" xmlns="http://www.w3.org/2000/svg">
<rect y="0.339355" width="49.8729" height="49.8729" rx="16.088" fill="#0A0E13"/>
<path fill-rule="evenodd" clip-rule="evenodd" d="M35.2596 11.8222C35.6623 11.7872 36.0625 11.9134 36.3722 12.1732C36.6818 12.433 36.8758 12.8051 36.9113 13.2077L38.418 30.3994C38.443 30.6027 38.4269 30.8089 38.3705 31.0059C38.3141 31.2028 38.2187 31.3864 38.0898 31.5456C37.961 31.7048 37.8014 31.8365 37.6205 31.9327C37.4397 32.0289 37.2413 32.0877 37.0372 32.1056C36.8332 32.1235 36.6276 32.1001 36.4328 32.0368C36.238 31.9735 36.0579 31.8716 35.9033 31.7372C35.7487 31.6028 35.6228 31.4387 35.533 31.2546C35.4432 31.0704 35.3914 30.8701 35.3808 30.6656L34.1955 17.1414L15.648 39.2522C15.388 39.5622 15.0156 39.7561 14.6126 39.7914C14.2095 39.8268 13.809 39.7005 13.4991 39.4406C13.1891 39.1806 12.9952 38.8081 12.9598 38.4051C12.9245 38.0021 13.0507 37.6015 13.3107 37.2916L31.8582 15.1808L18.3341 16.3661C18.1308 16.3911 17.9246 16.375 17.7276 16.3186C17.5307 16.2623 17.3471 16.1668 17.1879 16.0379C17.0287 15.9091 16.897 15.7495 16.8008 15.5686C16.7046 15.3878 16.6458 15.1894 16.6279 14.9853C16.61 14.7813 16.6334 14.5757 16.6967 14.3809C16.76 14.1861 16.8619 14.006 16.9963 13.8514C17.1307 13.6968 17.2948 13.5709 17.4789 13.4811C17.6631 13.3913 17.8634 13.3396 18.068 13.3289L35.2596 11.8222Z" fill="white"/>
</svg>
