<svg xmlns="http://www.w3.org/2000/svg" fill="none" viewBox="0 0 112 112">
<g clip-path="url(#clip0_1150_2805)">
<path d="M41.5657 42.0001H47.133C48.2997 42.0001 48.9997 42.9334 48.9997 43.8667V82.1334C48.9997 83.0644 48.0663 84.0001 47.133 84.0001H41.5703C40.637 84.0001 39.7037 83.0667 39.7037 82.1334V43.8667C39.4703 42.7001 40.399 42.0001 41.5657 42.0001ZM33.133 25.6667H25.433C24.2663 25.6667 23.333 26.6071 23.333 27.5497V39.6667H5.13301C3.73301 39.6667 2.33301 41.0784 2.33301 42.4901V81.1768C2.33301 82.5908 3.73301 84.0001 5.13301 84.0001H33.133C34.0663 84.0001 34.9997 83.2884 34.9997 82.1124V27.5497C34.9997 26.6071 34.2997 25.6667 33.133 25.6667ZM23.333 72.9937C23.333 73.9224 22.3997 74.8604 21.4663 74.8604H15.8663C14.933 74.8604 13.9997 73.9294 13.9997 72.9937V50.8667C13.9997 49.9334 14.6997 49.0001 15.8663 49.0001H21.4663C22.633 49.0001 23.333 49.9334 23.333 50.8667V72.9937ZM77.4663 58.3334C78.633 58.3334 79.333 59.7334 79.333 60.2001V82.1334C79.333 83.0644 78.3483 84.0001 77.4663 84.0001H55.533C54.5413 84.0001 53.6663 83.0667 53.6663 82.1334V76.5661C53.6663 75.3994 54.5997 74.7017 55.533 74.7017L69.9997 74.6667V67.6667H55.533C54.7607 67.6667 53.6663 66.7334 53.6663 65.7977V43.8667C53.6663 42.7001 54.5997 42.0001 55.533 42.0001H77.4663C78.3973 42.0001 79.333 42.9334 79.333 43.8667V49.4667C79.333 50.1667 78.7123 51.3334 77.4663 51.3334H62.9997V58.3334H77.4663ZM112 65.3334V82.1334C112 83.0644 111.066 84.0001 110.131 84.0001H85.8663C85.3997 84.0001 83.9997 83.0667 83.9997 82.1334V43.8667C83.9997 42.7001 85.0077 42.0001 85.9387 42.0001H110.133C110.133 42.0001 112 42.0001 112 43.8667V58.3334H102.666V53.2001C102.666 53.2001 102.9 51.3334 100.8 51.3334H95.1997C94.033 51.3334 93.333 52.2667 93.333 53.2001V72.8001C93.333 73.7311 94.4997 74.6667 95.1997 74.6667H100.8C101.731 74.6667 102.666 73.7334 102.666 72.8001V65.3334H112Z" fill="#02070E"/>
<path d="M106.864 37.2867H109.433V30.0557H112V27.9534H104.531V30.0557H106.864V37.2867ZM102.699 33.7774H100.032V33.999C100.032 34.8904 99.8084 35.336 98.6977 35.336C97.5894 35.336 97.3677 34.8904 97.3677 33.558V31.9994C97.3677 30.6647 97.3677 30.2214 98.6977 30.2214C99.5867 30.2214 100.032 30.443 100.032 31.3344V31.556H102.475V31.3344C102.475 28.8914 101.586 28 98.9217 28H98.2521C95.5897 28 94.6984 28.8914 94.6984 31.7754V33.558C94.6984 36.2227 95.5874 37.3334 98.2521 37.3334H99.1457C101.589 37.3334 102.478 36.2204 102.478 33.9967V33.775L102.699 33.7774ZM68.8707 28L67.0064 34.7667L64.9041 28H61.1731V37.3334H63.7374V30.3334L65.6017 37.3334H68.1731L70.2684 30.5667V37.3334H72.6017V28H68.8707ZM90.3304 28H86.1351L83.3374 37.3334H86.1351L86.5994 35.7H89.8684L90.3327 37.3334H93.1304L90.3304 28ZM88.4661 33.8334H87.5327L88.4661 29.8667L89.3947 33.8334H88.4661ZM79.1467 28H74.7134V37.3334H77.2847V34.7667H79.1491C81.7204 34.7667 82.6491 33.8334 82.6491 31.5V30.8C82.6467 28.7 81.7134 28 79.1467 28ZM80.0801 31.7334C80.0801 32.6667 79.8467 32.9 79.1467 32.9H77.2824V30.1H78.9157C79.8491 30.1 80.0824 30.3334 80.0824 31.0334L80.0801 31.7334ZM55.0527 28H53.7181C51.0511 28 50.1644 28.8914 50.1644 31.7754V33.5534C50.1644 36.2227 51.0534 37.3334 53.7181 37.3334H55.0527C57.7197 37.3334 58.6064 36.2204 58.6064 33.5534V31.7754C58.6064 28.8914 57.7197 28 55.0527 28ZM55.9417 33.11C55.9417 34.4424 55.9417 34.8904 54.6094 34.8904H54.1661C52.8337 34.8904 52.8337 34.4447 52.8337 33.11V31.7754C52.8337 30.4454 52.8337 29.9974 54.1661 29.9974H54.6094C55.9417 29.9974 55.9417 30.443 55.9417 31.7754V33.11ZM47.6514 33.7797H44.9821V34.0014C44.9821 34.8927 44.7604 35.3337 43.6497 35.3337C42.5391 35.3337 42.3174 34.8927 42.3174 33.5557V32.0017C42.3174 30.6647 42.3174 30.2237 43.6497 30.2237C44.5387 30.2237 44.9821 30.4454 44.9821 31.332V31.556H47.4274V31.332C47.4274 28.889 46.5384 28 43.8737 28H43.2064C40.5394 28 39.6504 28.889 39.6504 31.7754V33.5557C39.6504 36.2227 40.5394 37.3334 43.2064 37.3334H44.0954C46.5407 37.3334 47.4297 36.2204 47.4297 33.999V33.7774H47.6514V33.7797Z" fill="#02070E"/>
</g>
<defs>
<clipPath id="clip0_1150_2805">
<rect width="112" height="112" fill="white"/>
</clipPath>
</defs>
</svg>