<svg width="91" height="65" viewBox="0 0 91 65" fill="none" xmlns="http://www.w3.org/2000/svg">
<path d="M90.3594 40.741C90.3594 47.2533 89.0561 52.8569 86.5889 56.9484C83.4216 62.2039 78.4987 64.9844 72.3538 64.9844C60.6246 64.9844 52.7394 50.2697 44.394 34.6927C38.3302 23.3773 30.8047 9.29688 24.6172 9.29688C21.6356 9.29688 17.9811 12.9204 15.0807 18.7521C11.7631 25.6125 10.0015 33.1209 9.92188 40.741C9.92188 45.4976 10.7881 49.5504 12.3582 52.1569C13.8161 54.5778 15.8155 55.7031 18.6462 55.7031C23.9636 55.7031 30.4914 44.4883 32.6377 40.8183C33.2577 39.7547 34.2749 38.981 35.4653 38.6673C36.6558 38.3537 37.9221 38.5258 38.9857 39.1458C40.0493 39.7658 40.823 40.7829 41.1367 41.9734C41.4504 43.1638 41.2783 44.4302 40.6583 45.4938C37.2126 51.4028 34.2658 55.5484 31.377 58.5571C27.2275 62.8806 23.0703 64.9844 18.6462 64.9844C12.5013 64.9844 7.57836 62.2039 4.41113 56.9484C1.94387 52.8569 0.640625 47.2533 0.640625 40.741C0.640625 23.737 9.75945 0.015625 24.6172 0.015625C36.3464 0.015625 44.2316 14.7303 52.577 30.3073C58.6484 41.6227 66.1778 55.7031 72.3538 55.7031C75.1845 55.7031 77.1839 54.5778 78.6418 52.1569C80.2119 49.5504 81.0781 45.4976 81.0781 40.741C80.9997 33.1212 79.2394 25.6128 75.9232 18.7521C73.0228 12.9204 69.3683 9.29688 66.3828 9.29688C64.1708 9.29688 61.5063 11.2305 58.4589 15.0319C57.6897 15.9929 56.5702 16.609 55.3467 16.7446C54.1233 16.8803 52.896 16.5243 51.935 15.7551C50.974 14.9858 50.3579 13.8664 50.2223 12.6429C50.0866 11.4194 50.4426 10.1922 51.2118 9.23113C56.1812 3.03203 61.1428 0.015625 66.3828 0.015625C73.2084 0.015625 79.5312 5.20152 84.2299 14.6181C88.1712 22.7683 90.2642 31.6883 90.3594 40.741Z" fill="#fff"/>
</svg>
