<svg width="82" height="110" viewBox="0 0 82 110" fill="none" xmlns="http://www.w3.org/2000/svg">
<path d="M77.5621 40.8125H51.6637L80.2383 66.2031C80.8565 66.7483 81.2942 67.4687 81.4934 68.2685C81.6925 69.0683 81.6437 69.9098 81.3533 70.6812C81.0629 71.4526 80.5447 72.1175 79.8676 72.5874C79.1905 73.0574 78.3864 73.3103 77.5621 73.3125H45.0621V105.813C45.0628 106.616 44.8249 107.403 44.3785 108.071C43.9322 108.74 43.2974 109.261 42.5547 109.569C41.812 109.877 40.9947 109.957 40.2062 109.8C39.4177 109.643 38.6936 109.256 38.1254 108.687L1.56292 72.1242C1.18578 71.7467 0.886724 71.2985 0.682835 70.8053C0.478946 70.3122 0.374221 69.7837 0.37464 69.25V36.75C0.37464 35.6726 0.802653 34.6393 1.56452 33.8774C2.32639 33.1155 3.3597 32.6875 4.43714 32.6875H30.3356L1.74066 7.29689C1.12117 6.75055 0.682928 6.02836 0.484366 5.2266C0.285805 4.42484 0.336355 3.5816 0.629277 2.8093C0.922199 2.037 1.44357 1.37234 2.1239 0.903923C2.80422 0.435508 3.61116 0.185599 4.43714 0.187511H77.5621C78.6396 0.187511 79.6729 0.615523 80.4348 1.37739C81.1966 2.13926 81.6246 3.17257 81.6246 4.25001V36.75C81.6246 37.8275 81.1966 38.8608 80.4348 39.6226C79.6729 40.3845 78.6396 40.8125 77.5621 40.8125Z" fill="#fff"/>
</svg>
