<svg width="96" height="76" viewBox="0 0 96 76" fill="none" xmlns="http://www.w3.org/2000/svg">
<path d="M90.6645 59.7739C89.857 59.734 89.0566 59.9419 88.3706 60.3698C87.6847 60.7977 87.146 61.4251 86.8268 62.1679V59.7739H82.506V75.7287H86.853V65.4492C86.853 63.8217 87.7298 62.9239 89.0738 62.9239C89.6511 62.9696 90.187 63.2411 90.5655 63.6794C90.9439 64.1178 91.1341 64.6877 91.095 65.2654V65.7222H95.253V64.5042C95.3022 63.8826 95.2184 63.2576 95.0072 62.671C94.796 62.0843 94.4622 61.5494 94.0281 61.1018C93.5939 60.6543 93.0694 60.3043 92.4894 60.0754C91.9094 59.8464 91.2873 59.7436 90.6645 59.7739ZM74.0798 72.3634C73.5482 72.4083 73.0132 72.3429 72.5081 72.1713C72.003 71.9998 71.5388 71.7258 71.1445 71.3665C70.7502 71.0072 70.4343 70.5703 70.2167 70.0833C69.9991 69.5963 69.8844 69.0696 69.8798 68.5362H80.7C80.8371 67.8962 80.9023 67.2429 80.8943 66.5884C80.9321 65.6331 80.7623 64.6809 80.3964 63.7976C80.0306 62.9143 79.4775 62.1208 78.7753 61.472C78.073 60.8232 77.2384 60.3344 76.3289 60.0394C75.4195 59.7445 74.4569 59.6503 73.5075 59.7634C72.4581 59.7171 71.4105 59.8886 70.4306 60.2671C69.4507 60.6456 68.5599 61.2229 67.8141 61.9627C67.0684 62.7026 66.484 63.5888 66.0977 64.5656C65.7113 65.5424 65.5315 66.5887 65.5695 67.6384C65.5273 68.7482 65.7217 69.8543 66.1399 70.8832C66.558 71.9121 67.1903 72.8402 67.9947 73.6059C68.7992 74.3716 69.7574 74.9574 70.8056 75.3243C71.8538 75.6912 72.9682 75.8308 74.0745 75.7339C75.6435 75.893 77.2205 75.5212 78.553 74.6778C79.8856 73.8345 80.8967 72.5685 81.4245 71.0824L77.7495 69.6387C77.5747 70.4619 77.1054 71.193 76.4297 71.6947C75.754 72.1964 74.9184 72.4342 74.0798 72.3634ZM73.5128 62.8714C75.4395 62.8714 76.7468 63.9214 76.7468 65.5384L76.7205 65.6749H69.8955C70.0755 64.8584 70.5359 64.1308 71.1968 63.6186C71.8577 63.1064 72.6772 62.842 73.5128 62.8714ZM64.9868 63.3072V59.7529H51.1058V63.4542H59.5845L50.8328 72.0274V75.7287H65.2335V71.8437H56.214L64.9868 63.3072ZM43.278 72.3634C42.7468 72.4067 42.2124 72.3402 41.708 72.168C41.2036 71.9959 40.74 71.7218 40.346 71.3628C39.9521 71.0039 39.6362 70.5676 39.4181 70.0814C39.1999 69.5951 39.0842 69.0691 39.078 68.5362H49.8983C50.0372 67.8964 50.1042 67.2431 50.0978 66.5884C50.1348 65.6328 49.9643 64.6806 49.5978 63.7973C49.2314 62.9139 48.6778 62.1206 47.9751 61.4719C47.2725 60.8231 46.4376 60.3345 45.5279 60.0395C44.6182 59.7446 43.6554 59.6504 42.7058 59.7634C41.6568 59.7178 40.6097 59.8899 39.6305 60.2687C38.6512 60.6476 37.761 61.225 37.0159 61.9648C36.2707 62.7045 35.6867 63.5905 35.3008 64.5669C34.9148 65.5434 34.7351 66.5891 34.773 67.6384C34.7322 68.7472 34.9278 69.8519 35.3466 70.8792C35.7655 71.9066 36.3981 72.8331 37.2025 73.5973C38.0069 74.3614 38.9646 74.9457 40.0121 75.3114C41.0596 75.6771 42.1728 75.8157 43.278 75.7182C44.8471 75.8782 46.4245 75.5068 47.7573 74.6633C49.0901 73.8198 50.101 72.5533 50.628 71.0667L46.953 69.6229C46.7804 70.4495 46.3115 71.1844 45.6346 71.6892C44.9576 72.194 44.1195 72.4338 43.278 72.3634ZM42.711 62.8714C44.6325 62.8714 45.9398 63.9214 45.9398 65.5384V65.6749H39.078C39.2602 64.8576 39.7227 64.1297 40.3853 63.6176C41.0479 63.1056 41.8741 62.8416 42.711 62.8714ZM27.3443 72.3634C26.8131 72.4067 26.2786 72.3402 25.7742 72.168C25.2698 71.9959 24.8062 71.7218 24.4123 71.3628C24.0183 71.0039 23.7025 70.5676 23.4843 70.0814C23.2662 69.5951 23.1504 69.0691 23.1443 68.5362H33.954C34.093 67.8964 34.1599 67.2431 34.1535 66.5884C34.1906 65.6328 34.02 64.6806 33.6536 63.7973C33.2871 62.9139 32.7335 62.1206 32.0309 61.4719C31.3283 60.8231 30.4933 60.3345 29.5836 60.0395C28.674 59.7446 27.7111 59.6504 26.7615 59.7634C25.7125 59.7178 24.6655 59.8899 23.6862 60.2687C22.707 60.6476 21.8168 61.225 21.0716 61.9648C20.3264 62.7045 19.7425 63.5905 19.3565 64.5669C18.9705 65.5434 18.7908 66.5891 18.8288 67.6384C18.7858 68.748 18.9795 69.854 19.397 70.8828C19.8146 71.9117 20.4464 72.8399 21.2504 73.6057C22.0544 74.3715 23.0123 74.9574 24.0603 75.3243C25.1083 75.6913 26.2224 75.8309 27.3285 75.7339C28.8976 75.894 30.475 75.5225 31.8078 74.679C33.1406 73.8356 34.1515 72.569 34.6785 71.0824L31.0035 69.6387C30.8279 70.4594 30.3599 71.1884 29.6866 71.6897C29.0134 72.191 28.1809 72.4304 27.3443 72.3634ZM26.7773 62.8714C28.6988 62.8714 30.006 63.9214 30.006 65.5384V65.6749H23.181C23.3613 64.8625 23.8189 64.1383 24.4752 63.6267C25.1315 63.1151 25.9455 62.848 26.7773 62.8714ZM13.3898 62.1574C12.8446 61.3413 12.0888 60.6878 11.2024 60.2663C10.3161 59.8448 9.33215 59.6711 8.35502 59.7634C7.30862 59.7229 6.26565 59.9065 5.29595 60.3018C4.32626 60.6972 3.45224 61.2952 2.73243 62.0557C2.01262 62.8163 1.46365 63.7219 1.12227 64.7119C0.780892 65.7019 0.655 66.7533 0.753022 67.7959C0.653331 68.8307 0.778141 69.8748 1.11893 70.8569C1.45971 71.839 2.00845 72.736 2.72765 73.4866C3.44686 74.2372 4.31959 74.8237 5.28624 75.2061C6.2529 75.5886 7.2907 75.7578 8.32877 75.7024C9.32134 75.8059 10.3238 75.6504 11.2384 75.2511C12.1529 74.8518 12.9484 74.2222 13.5473 73.4239V75.7024H17.679V52.1404H13.3898V62.1574ZM9.28952 72.3844C8.70106 72.3914 8.1177 72.2746 7.57728 72.0416C7.03685 71.8086 6.55142 71.4647 6.15246 71.032C5.75349 70.5994 5.4499 70.0878 5.26136 69.5303C5.07282 68.9728 5.00354 68.3819 5.05802 67.7959C5.00188 67.2052 5.06938 66.6093 5.2562 66.0461C5.44302 65.4829 5.74508 64.9648 6.14315 64.5248C6.54121 64.0847 7.02655 63.7324 7.56825 63.4902C8.10996 63.2481 8.69616 63.1214 9.28952 63.1182C9.88048 63.1291 10.4629 63.2611 11.0009 63.5058C11.5389 63.7506 12.021 64.103 12.4175 64.5414C12.8141 64.9797 13.1165 65.4946 13.3063 66.0544C13.4961 66.6141 13.5692 67.2068 13.521 67.7959C13.5657 68.3799 13.4897 68.9668 13.2975 69.52C13.1054 70.0732 12.8013 70.581 12.4043 71.0115C12.0073 71.442 11.5258 71.7861 10.9899 72.0223C10.454 72.2586 9.87517 72.3818 9.28952 72.3844ZM30.846 12.9492H46.7378V22.2469H30.846V12.9492ZM30.846 25.8379H46.7378V35.1357H30.846V25.8379ZM50.0715 25.8379H65.9633V35.1357H50.0715V25.8379ZM69.2603 38.7319H85.152V48.0297H69.2603V38.7319ZM50.0715 38.7319H65.9633V48.0297H50.0715V38.7319ZM30.846 38.7319H46.7378V48.0297H30.846V38.7319ZM11.6573 38.7319H27.549V48.0297H11.6573V38.7319ZM69.2603 25.8379H85.152V35.1357H69.2603V25.8379ZM69.2603 12.9492H85.152V22.2469H69.2603V12.9492ZM69.2603 0.0551758H85.152V9.35293H69.2603V0.0551758Z" fill="#fff"/>
</svg>
