<svg width="211" height="37" viewBox="0 0 211 37" fill="none" xmlns="http://www.w3.org/2000/svg">
<path fill-rule="evenodd" clip-rule="evenodd" d="M0.0888672 1.29975H10.9266V27.7379H27.8421V36.375H0.0888672V1.29975ZM54.352 30.5851H42.0057L40.3091 36.375H29.2316L42.4144 1.29975H54.2321L67.4157 36.375H56.0749L54.352 30.5851ZM52.0796 23.0006L48.2034 10.3919L44.3507 23.0006H52.0796ZM71.0286 1.30063H87.1304C90.3049 1.30063 92.8686 1.73025 94.8225 2.59213C96.7764 3.45313 98.3916 4.6895 99.6674 6.30038C100.944 7.91125 101.869 9.7855 102.443 11.9231C103.017 14.0599 103.304 16.3244 103.304 18.7175C103.304 22.466 102.878 25.3728 102.025 27.4386C101.171 29.5036 99.9859 31.2352 98.4721 32.6309C96.9557 34.0265 95.3291 34.9558 93.5896 35.4178C91.214 36.0565 89.0606 36.375 87.1304 36.375H71.0286V1.30063ZM81.8664 9.243V28.4081H84.5229C86.7874 28.4081 88.3991 28.1561 89.3555 27.6539C90.3128 27.1516 91.0618 26.274 91.6043 25.0219C92.1468 23.7706 92.418 21.7406 92.418 18.9328C92.418 15.2166 91.8116 12.6721 90.5997 11.301C89.3879 9.929 87.378 9.243 84.571 9.243H81.8673H81.8664ZM107.108 24.7708L117.42 24.125C117.644 25.7998 118.098 27.0755 118.784 27.9531C119.901 29.3724 121.496 30.0829 123.57 30.0829C125.117 30.0829 126.309 29.7197 127.147 28.9935C127.984 28.2681 128.402 27.4272 128.402 26.47C128.402 25.56 128.003 24.7463 127.206 24.0288C126.408 23.3113 124.559 22.634 121.655 21.9953C116.902 20.9269 113.512 19.5076 111.488 17.7366C109.445 15.9665 108.425 13.709 108.425 10.9659C108.425 9.16338 108.947 7.46063 109.992 5.85763C111.036 4.25463 112.608 2.99463 114.705 2.07763C116.802 1.16063 119.678 0.701256 123.33 0.701256C127.813 0.701256 131.229 1.53513 133.582 3.202C135.935 4.86888 137.334 7.52013 137.781 11.1575L127.565 11.7551C127.294 10.1766 126.723 9.02775 125.854 8.31026C124.985 7.59275 123.785 7.234 122.254 7.234C120.994 7.234 120.044 7.50088 119.406 8.03463C118.768 8.56925 118.449 9.21937 118.449 9.985C118.449 10.5433 118.712 11.0455 119.238 11.4917C119.749 11.9555 120.962 12.3851 122.876 12.7841C127.613 13.8053 131.006 14.8378 133.056 15.8825C135.106 16.9273 136.597 18.2231 137.53 19.7701C138.463 21.318 138.93 23.0488 138.93 24.9624C138.93 27.2111 138.307 29.2849 137.064 31.1836C135.82 33.0815 134.08 34.5209 131.848 35.5018C129.614 36.4826 126.799 36.9735 123.402 36.9735C117.437 36.9735 113.305 35.8246 111.008 33.5278C108.711 31.2309 107.412 28.3128 107.108 24.7708ZM144.337 1.29975H162.353C166.277 1.29975 169.216 2.2325 171.17 4.09975C173.124 5.96525 174.101 8.62088 174.101 12.0666C174.101 15.6078 173.036 18.3754 170.907 20.3686C168.777 22.3628 165.528 23.3594 161.157 23.3594H155.223V36.375H144.337V1.29975ZM155.223 16.2535H157.879C159.969 16.2535 161.436 15.8904 162.281 15.165C163.127 14.4388 163.549 13.5095 163.549 12.3773C163.549 11.2765 163.182 10.3438 162.449 9.57813C161.715 8.8125 160.335 8.42925 158.31 8.42925H155.223V16.2535ZM197.189 30.5851H184.843L183.145 36.375H172.068L185.25 1.29975H197.07L210.253 36.375H198.912L197.189 30.5851ZM194.916 23.0006L191.04 10.3919L187.188 23.0006H194.916Z" fill="black"/>
</svg>
