<svg width="196" height="47" viewBox="0 0 196 47" fill="none" xmlns="http://www.w3.org/2000/svg">
<path fill-rule="evenodd" clip-rule="evenodd" d="M50.7849 4.15625C50.3049 4.15672 49.8446 4.34697 49.5044 4.6855C49.1642 5.02403 48.9716 5.48337 48.9688 5.96331V10.1873C48.9688 10.9359 49.5705 11.5422 50.3254 11.5422H90.2058C90.9553 11.5422 91.5625 10.9377 91.5625 10.1873V5.51109C91.5625 4.76253 90.9608 4.15625 90.2058 4.15625H50.7849ZM50.3254 15.0312C49.5759 15.0312 48.9688 15.6357 48.9688 16.3861V21.0623C48.9688 21.8109 49.5705 22.4172 50.3254 22.4172H90.2058C90.9553 22.4172 91.5625 21.8127 91.5625 21.0623V16.3861C91.5625 15.6375 90.9608 15.0312 90.2058 15.0312H50.3254ZM50.3254 26.8125C49.5759 26.8125 48.9688 27.417 48.9688 28.1673V32.8436C48.9688 33.5922 49.5705 34.1984 50.3254 34.1984H90.2058C90.9553 34.1984 91.5625 33.594 91.5625 32.8436V28.1673C91.5625 27.4188 90.9608 26.8125 90.2058 26.8125H50.3254ZM50.3254 38.5937C49.5759 38.5937 48.9688 39.1982 48.9688 39.9486V44.6248C48.9688 45.3734 49.5705 45.9797 50.3254 45.9797H90.2058C90.9553 45.9797 91.5625 45.3752 91.5625 44.6248V39.9486C91.5625 39.2 90.9608 38.5937 90.2058 38.5937H50.3254ZM38.0938 45.3933C38.0938 46.1428 38.6982 46.75 39.4486 46.75H44.1249C44.8734 46.75 45.4797 46.1483 45.4797 45.3933V5.5129C45.4797 4.76344 44.8752 4.15625 44.1249 4.15625H39.4486C38.7 4.15625 38.0938 4.758 38.0938 5.5129V45.3933ZM13.625 45.3933C13.625 46.1428 14.2295 46.75 14.9799 46.75H19.6561C20.4047 46.75 21.0109 46.1483 21.0109 45.3933V5.5129C21.0109 4.76344 20.4065 4.15625 19.6561 4.15625H14.9799C14.2313 4.15625 13.625 4.758 13.625 5.5129V45.3933ZM8.32344 45.3933C8.32344 46.1428 7.71898 46.75 6.9686 46.75H2.29235C2.11418 46.7504 1.93769 46.7155 1.77303 46.6474C1.60837 46.5793 1.45879 46.4794 1.33289 46.3533C1.20699 46.2273 1.10724 46.0775 1.03939 45.9128C0.971532 45.748 0.93691 45.5715 0.937508 45.3933V5.5129C0.937508 4.76344 1.54198 4.15625 2.29235 4.15625H6.9686C7.71716 4.15625 8.32344 4.758 8.32344 5.5129V45.3933ZM25.4063 45.3933C25.4063 46.1428 26.0107 46.75 26.7611 46.75H31.4373C32.1859 46.75 32.7922 46.1483 32.7922 45.3933V5.5129C32.7922 4.76344 32.1877 4.15625 31.4373 4.15625H26.7611C26.0125 4.15625 25.4063 4.758 25.4063 5.5129V45.3933ZM109.343 4.47253C109.343 5.39237 109.157 45.8664 109.157 45.8664L128.024 45.8537L128.298 39.3505L115.387 38.9735L115.423 4.58581C115.423 4.58581 109.343 3.55178 109.343 4.47253ZM135.728 6.14999C134.376 6.20074 133.056 7.17134 133.118 8.17093C133.178 9.17234 134.65 10.1556 135.971 10.104C137.291 10.0541 138.504 8.93853 138.445 7.96794C138.386 6.99734 137.081 6.09834 135.728 6.14999ZM133.41 19.577L133.309 45.4205L138.832 45.4151L139.28 19.4374L133.41 19.577ZM143.436 19.7655L143.051 45.9425H150.323L149.95 27.7586L152.987 23.9487L157.314 23.763L160.719 27.2611L160.902 45.116L168.173 45.1124L166.787 23.3135L161.304 18.8529L153.872 18.388L148.947 21.5173L148.94 17.8007L143.436 19.7655ZM171.898 0.0137787L172.03 45.4577L177.737 45.7341C177.737 45.7341 178.833 31.999 178.284 32.7348C177.737 33.4716 186.661 45.1604 186.661 45.1604L195.22 44.9756L184.353 30.4022L193.372 18.7061L186.383 18.427L178.853 27.7115L178.933 0.150623L171.898 0.0137787Z" fill="black"/>
</svg>
